<?xml version="1.0" encoding="utf-8"?>
<!-- Generator: Adobe Illustrator 21.0.0, SVG Export Plug-In . SVG Version: 6.00 Build 0)  -->
<svg version="1.1" id="Layer_1" xmlns="http://www.w3.org/2000/svg" xmlns:xlink="http://www.w3.org/1999/xlink" x="0px" y="0px"
	 viewBox="0 0 632.3 132" style="enable-background:new 0 0 632.3 132;" xml:space="preserve">
<style type="text/css">
	.st0{fill:#2E4355;}
	.st1{fill:#81A6BC;}
</style>
<g>
	<g>
		<path class="st0" d="M190.9,106c-22.4,0-32.6-17.1-32.6-38.5c0-21.5,10.4-38.7,32.6-38.7c22.4,0,32.5,17.1,32.5,38.7
			C223.3,88.8,213.6,106,190.9,106z M190.9,39.8c-15.6,0-19.9,13.5-19.9,27.7c0,14.3,4.5,27.6,19.9,27.6c15.3,0,19.7-13.3,19.7-27.6
			C210.5,53.3,206.3,39.8,190.9,39.8z"/>
		<path class="st0" d="M232.8,51.6c0-0.6,0.4-0.9,1-0.9h9.7c0.6,0,1,0.3,1,1v32.7c0,7.8,2.9,11.3,9.5,11.3c8.5,0,13-7.9,13-15.4
			V51.8c0-0.6,0.4-1,1-1h9.7c0.6,0,0.9,0.3,0.9,1v51.6c0,0.6-0.3,1-1,1H272c-0.5,0-0.9-0.2-1.3-0.7c-1-2.3-2.2-4.7-3.2-7
			c-3.7,6-9.9,9.2-16.6,9.2c-12.1,0-18.3-7-18.3-19.6L232.8,51.6z"/>
		<path class="st0" d="M285.9,60.1c-0.6,0-1-0.4-1-1v-7.4c0-0.6,0.4-1,1-1h8.2V41c0-0.5,0.2-0.9,0.7-1.2l9.9-4.7
			c0.7-0.4,1.2-0.1,1.2,0.7v14.9h12.6c0.6,0,1,0.3,1,1v7.4c0,0.6-0.3,1-1,1h-12.7v27.7c0,5.1,2.1,7.5,6.7,7.5c2.2,0,4.1-0.2,6.3-0.5
			c0.6-0.1,1,0.2,1.1,0.8l0.7,7.3c0.1,0.6-0.2,1-0.8,1.1c-3.2,0.9-6.3,1.4-9.8,1.4c-11.3,0-16.1-6.1-16.1-17.5V60.1H285.9z"/>
		<path class="st0" d="M377.5,77.4c0,16.1-8,28.5-23.2,28.5c-6.2,0-11.9-2.1-15.6-7v24.9c0,0.6-0.3,0.9-1,0.9H328
			c-0.6,0-0.9-0.3-0.9-1V51.6c0-0.6,0.4-1,1-1h6.5c0.5,0,0.9,0.2,1.1,0.8l2.7,6.2c3.6-5.6,9.8-8.5,16.5-8.5
			c15.3,0,22.7,12.5,22.7,28.3H377.5z M352.3,59.1c-9.8,0-13.7,7.8-13.7,17.7c0,11.9,3.9,19.3,13.6,19.3c8.7,0,13.2-7.6,13.2-18.6
			C365.4,66.5,361.1,59.1,352.3,59.1z"/>
		<path class="st0" d="M409.7,105.9c-16.9,0-25.7-11.6-25.7-28.4c0-16.9,9.5-28.4,25.8-28.4c16.7,0,25.7,11.8,25.7,28.3
			C435.5,94.2,426.2,105.9,409.7,105.9z M409.7,59.1c-10.1,0-13.6,8.6-13.6,18.3c0,10.1,3.3,18.6,13.6,18.6
			c10.5,0,13.7-8.8,13.7-18.6C423.4,67.6,420,59.1,409.7,59.1z"/>
		<path class="st0" d="M464.7,105.9c-12,0-22.8-5.2-23.8-17.3c-0.1-0.6,0.3-1,0.9-1h9.4c0.6,0,0.9,0.3,1,0.9c1,5.8,5.8,8.1,12.5,8.1
			c7.1,0,11.2-2.2,11.2-7.2c0-5.8-6.1-6.5-14.2-7.8c-11.6-1-19.6-6.1-19.6-15.8c0-10.8,9.8-16.7,22.1-16.7
			c13.4,0,21.3,6.8,22.2,16.1c0.1,0.6-0.3,1-0.9,1l-9.1,0.1c-0.6,0-0.9-0.3-1.1-0.9c-0.9-4.6-4.5-7.3-10.8-7.3
			c-7.2,0-10.9,2.7-10.9,6.8c0,4.4,2.7,5.6,10.1,6.8c16.1,2.5,23.7,5.4,23.7,17.3C487.4,100.2,478.2,105.9,464.7,105.9z"/>
		<path class="st0" d="M492,60.1c-0.6,0-1-0.4-1-1v-7.4c0-0.6,0.4-1,1-1h8.2V41c0-0.5,0.2-0.9,0.7-1.2l9.9-4.7
			c0.7-0.4,1.2-0.1,1.2,0.7v14.9h12.6c0.6,0,1,0.3,1,1v7.4c0,0.6-0.3,1-1,1H512v27.7c0,5.1,2.1,7.5,6.7,7.5c2.2,0,4.1-0.2,6.3-0.5
			c0.6-0.1,1,0.2,1.1,0.8l0.7,7.3c0.1,0.6-0.2,1-0.8,1.1c-3.2,0.9-6.3,1.4-9.8,1.4c-11.3,0-16.1-6.1-16.1-17.5V60.1H492z"/>
		<path class="st1" d="M534.6,104.5c-0.6,0-0.9-0.4-0.9-1v-5.1c0-0.5,0.2-0.8,0.5-1.2c4-4,20.2-21.7,23-24.3
			c8.2-7.5,12.6-14.4,12.6-22c0-8.4-5.3-13.1-13.5-13.1c-9.4,0-13.8,4.6-15.3,12.7c-0.1,0.6-0.4,0.9-1,0.9h-5.4
			c-0.7,0-1.1-0.4-1-1.1c1.7-10.5,8.5-19.5,22.9-19.5c13,0,21.3,7.8,21.3,19.7c0,9.4-4.8,17.8-14.7,26.6c-2,1.8-17.3,18.6-19.4,20.4
			h33.9c0.6,0,1,0.3,1,1v4.9c0,0.6-0.4,1-1,1L534.6,104.5z"/>
		<path class="st1" d="M581.4,80.9c0-0.5,0.1-0.9,0.4-1.3l33.1-46.2c0.3-0.4,0.6-0.6,1.2-0.6h6.1c0.6,0,0.9,0.3,0.9,1v46h8
			c0.6,0,1,0.3,1,1v4.1c0,0.6-0.3,1-1,1h-8.1v17.6c0,0.6-0.3,0.9-1,0.9h-5.7c-0.6,0-1-0.4-1-1V85.8h-32.9c-0.6,0-1-0.4-1-1V80.9z
			 M615.4,43.6l-26,36.2h26V43.6z"/>
		<path class="st1" d="M66,106.2c-22.2,0-40.2-18-40.2-40.2c0-22.2,18-40.2,40.2-40.2c13.4,0,25.8,6.6,33.3,17.7
			c4.5,6.6,6.9,14.4,6.9,22.5C106.2,88.2,88.2,106.2,66,106.2z M66,30c-19.8,0-36,16.1-36,36c0,19.8,16.1,36,36,36
			c19.8,0,36-16.1,36-36c0-7.2-2.1-14.1-6.1-20.1C89.1,36,77.9,30,66,30z"/>
		<path class="st1" d="M66,129c-34.8,0-63-28.3-63-63C3,31.2,31.2,3,66,3c20.9,0,40.5,10.4,52.3,27.8c7,10.4,10.8,22.6,10.8,35.2
			C129,100.8,100.8,129,66,129z M66,7.2C33.6,7.2,7.2,33.6,7.2,66c0,32.4,26.4,58.8,58.8,58.8c32.4,0,58.8-26.4,58.8-58.8
			c0-11.8-3.5-23.1-10-32.8C103.8,16.9,85.5,7.2,66,7.2z"/>
		<path class="st0" d="M66,132c-36.4,0-66-29.6-66-66C0,34.3,22.6,7,53.7,1.1C57.7,0.4,61.9,0,66,0c8.7,0,17.1,1.7,25.1,5l-3.9,9.4
			c-6.7-2.8-13.9-4.2-21.2-4.2c-3.5,0-7,0.3-10.4,1c-26.3,5-45.4,28.1-45.4,54.9c0,30.8,25.1,55.8,55.8,55.8
			c30.8,0,55.8-25,55.8-55.8c0-11.2-3.3-22-9.5-31.2l8.4-5.7C128.1,40,132,52.8,132,66C132,102.4,102.4,132,66,132z"/>
		<path class="st0" d="M66,109.1c-23.8,0-43.2-19.4-43.2-43.1c0-20.7,14.8-38.6,35.2-42.4c2.6-0.5,5.3-0.7,8-0.7
			c5.7,0,11.2,1.1,16.4,3.2l-3.9,9.4c-5.9-2.4-12.4-3.1-18.6-1.9C44.3,36.5,33,50.1,33,66c0,18.2,14.8,33,33,33
			c18.2,0,33-14.8,33-33c0-6.6-1.9-13-5.6-18.4l8.4-5.7c4.8,7.1,7.4,15.5,7.4,24.1C109.1,89.8,89.8,109.1,66,109.1z"/>
		<path class="st0" d="M66,46.5c-10.8,0-19.5,8.7-19.5,19.5c0,10.8,8.7,19.5,19.5,19.5c10.8,0,19.5-8.7,19.5-19.5
			C85.5,55.2,76.8,46.5,66,46.5z M66,71.2c-2.9,0-5.2-2.3-5.2-5.2s2.3-5.2,5.2-5.2s5.2,2.3,5.2,5.2S68.9,71.2,66,71.2z"/>
	</g>
</g>
</svg>
